<svg t="1652589822841" class="icon" viewBox="0 0 1024 1024" version="1.1" xmlns="http://www.w3.org/2000/svg" p-id="3140" width="200" height="200"><path d="M508.348 990c-265.776 0-482-216.224-482-482S242.572 26 508.348 26s482 216.224 482 482c0 27.612-22.388 50-50 50s-50-22.388-50-50c0-210.636-171.364-382-382-382s-382 171.364-382 382 171.364 382 382 382c27.612 0 50 22.388 50 50s-22.388 50-50 50z" fill="#0fe7ff" p-id="3141" data-spm-anchor-id="a313x.7781069.0.i18" class=""></path><path d="M686.736 951.588c-19.02 0-37.192-10.904-45.564-29.348-11.412-25.148-0.276-54.78 24.868-66.196 87.776-39.836 156.784-110.64 194.308-199.372 10.752-25.428 40.084-37.32 65.528-26.576 25.432 10.752 37.332 40.092 26.576 65.528-47.332 111.924-134.372 201.236-245.084 251.48a49.804 49.804 0 0 1-20.632 4.484z" fill="#0fe7ff" p-id="3142" data-spm-anchor-id="a313x.7781069.0.i17" class=""></path><path d="M407.416 751.084a50.012 50.012 0 0 1-49.992-50V298.604a49.996 49.996 0 0 1 79.228-40.564l279.272 201.236a50 50 0 0 1 0 81.136l-279.268 201.248a50.028 50.028 0 0 1-29.24 9.424z m50.008-354.824v207.164l143.744-103.584-143.744-103.58z" fill="#0ad9fb" p-id="3143" data-spm-anchor-id="a313x.7781069.0.i19" class=""></path></svg>