<?xml version="1.0" standalone="no"?><!DOCTYPE svg PUBLIC "-//W3C//DTD SVG 1.1//EN" "http://www.w3.org/Graphics/SVG/1.1/DTD/svg11.dtd"><svg t="1639835221574" class="icon" viewBox="0 0 1024 1024" version="1.1" xmlns="http://www.w3.org/2000/svg" p-id="17290" xmlns:xlink="http://www.w3.org/1999/xlink" width="200" height="200"><defs><style type="text/css"></style></defs><path d="M134.304 137.5072c170.304-170.304 443.328-179.824 625.072-21.792 181.7472 158.0352 210.2336 429.7376 65.248 622.0288 58.5504 58.5504 117.1008 117.0976 175.6352 175.648 24.88 24.864 24.88 65.1968 0 90.0576-24.8672 24.864-65.184 24.864-90.048 0-58.5664-58.5472-117.0976-117.0976-175.648-175.648-192.3072 145.0016-464.0128 116.4992-622.048-65.248C-45.504 580.832-36 307.7984 134.304 137.5104z m324.2144-57.8848c-211.0272 0-382.096 171.072-382.096 382.0928 0 211.0112 171.0688 382.0768 382.096 382.0768s382.096-171.0656 382.096-382.0768c0-211.024-171.0688-382.0928-382.096-382.0928z m0 178.3168c27.024 0 38.208 11.1808 38.208 38.2048v127.3504h127.3664c27.008 0 38.208 11.2 38.208 38.2208 0 27.008-11.2 38.2048-38.208 38.2048h-127.3696v127.3696c0 27.008-11.1808 38.208-38.2048 38.208-27.008 0-38.208-11.2-38.208-38.208v-127.3696H292.9472c-27.008 0-38.208-11.2-38.208-38.2048 0-27.024 11.2-38.2208 38.208-38.2208h127.3696V296.144c0-27.024 11.2-38.2048 38.208-38.2048z" fill="rgb(15,231,255)" p-id="17291"></path></svg>