<?xml version="1.0" standalone="no"?><!DOCTYPE svg PUBLIC "-//W3C//DTD SVG 1.1//EN" "http://www.w3.org/Graphics/SVG/1.1/DTD/svg11.dtd"><svg t="1645355223723" class="icon" viewBox="0 0 1024 1024" version="1.1" xmlns="http://www.w3.org/2000/svg" p-id="6981" xmlns:xlink="http://www.w3.org/1999/xlink" width="22" height="22"><defs><style type="text/css"></style></defs><path d="M512 1024c-69.1 0-136.2-13.5-199.3-40.3C251.7 958 197 921 150 874c-47-47-84-101.7-109.7-162.7C13.5 648.2 0 581.1 0 512s13.5-136.2 40.3-199.3C66 251.7 103 197 150 150c47-47 101.7-84 162.7-109.7C375.8 13.5 442.9 0 512 0s136.2 13.5 199.3 40.3C772.3 66 827 103 874 150c47 47 83.9 101.8 109.7 162.7 26.7 63.2 40.3 130.2 40.3 199.3s-13.5 136.2-40.3 199.3C958 772.3 921 827 874 874c-47 47-101.8 83.9-162.7 109.7-63.1 26.8-130.2 40.3-199.3 40.3z m0-934c-57 0-112.3 11.2-164.2 33.1-50.2 21.3-95.4 51.7-134.2 90.5-38.8 38.8-69.2 83.9-90.5 134.2C101.2 399.7 90 455 90 512c0 57 11.2 112.2 33.1 164.2 21.3 50.2 51.7 95.4 90.5 134.2 38.8 38.8 83.9 69.2 134.2 90.5 52 22 107.3 33.1 164.2 33.1 57 0 112.2-11.2 164.2-33.1 50.2-21.3 95.4-51.7 134.2-90.5 38.8-38.8 69.2-83.9 90.5-134.2 22-52 33.1-107.3 33.1-164.2 0-57-11.2-112.3-33.1-164.2-21.3-50.2-51.7-95.4-90.5-134.2-38.8-38.8-83.9-69.2-134.2-90.5C624.2 101.2 569 90 512 90z" p-id="6982" fill="#fff"></path></svg>