<?xml version="1.0" standalone="no"?><!DOCTYPE svg PUBLIC "-//W3C//DTD SVG 1.1//EN" "http://www.w3.org/Graphics/SVG/1.1/DTD/svg11.dtd"><svg t="1639833337754" class="icon" viewBox="0 0 1024 1024" version="1.1" xmlns="http://www.w3.org/2000/svg" p-id="5967" xmlns:xlink="http://www.w3.org/1999/xlink" width="200" height="200"><defs><style type="text/css"></style></defs><path d="M674.645333 112.469333L116.906667 685.056c-5.290667 5.461333-5.12 13.994667 0.170666 19.285333l212.821334 207.36c5.461333 5.290667 13.994667 5.12 19.285333-0.170666l557.909333-572.245334c5.290667-5.461333 5.12-13.994667-0.170666-19.285333L694.101333 112.298667c-5.461333-5.290667-14.165333-5.290667-19.456 0.170666zM328.704 817.664l-117.418667-114.346667c-5.461333-5.290667-5.461333-13.994667-0.170666-19.285333l8.021333-8.192c5.290667-5.461333 13.824-5.461333 19.285333-0.170667l48.128 46.762667c5.461333 5.290667 13.994667 5.12 19.285334-0.170667l27.477333-28.16c5.290667-5.461333 5.12-13.994667-0.170667-19.285333L285.013333 627.712c-5.461333-5.290667-5.461333-13.824-0.170666-19.285333l23.552-24.234667c5.290667-5.461333 13.824-5.461333 19.285333-0.341333l48.128 46.762666c5.461333 5.290667 13.994667 5.12 19.285333-0.170666l27.477334-28.16c5.290667-5.461333 5.12-13.994667-0.170667-19.285334L373.930667 535.893333c-5.461333-5.290667-5.461333-13.824-0.341334-19.285333L402.773333 486.4c5.290667-5.461333 13.994667-5.461333 19.285334-0.341333l48.128 46.762666c5.461333 5.290667 13.994667 5.12 19.285333-0.170666l27.477333-28.16c5.290667-5.461333 5.12-13.994667-0.170666-19.285334l-48.128-46.762666c-5.461333-5.290667-5.461333-13.824-0.341334-19.285334l29.184-30.208c5.290667-5.461333 13.994667-5.461333 19.285334-0.341333l48.128 46.762667c5.461333 5.290667 13.994667 5.12 19.285333-0.170667l27.477333-28.16c5.290667-5.461333 5.12-13.994667-0.341333-19.285333l-47.786667-46.421334c-5.461333-5.290667-5.632-13.994667-0.341333-19.285333l36.864-37.888c5.290667-5.461333 13.824-5.461333 19.285333-0.341333l48.128 46.762666c5.461333 5.290667 13.994667 5.12 19.285334-0.170666l27.477333-28.16c5.290667-5.461333 5.12-13.994667-0.170667-19.285334l-47.957333-46.762666c-5.290667-5.290667-5.461333-13.824-0.170667-19.285334l9.898667-10.24c5.290667-5.461333 13.994667-5.461333 19.285333-0.341333l117.418667 114.346667c5.461333 5.290667 5.461333 13.824 0.170667 19.285333L348.16 817.322667c-5.290667 5.461333-13.994667 5.461333-19.456 0.341333z m9.898667 9.386667" p-id="5968" fill="rgb(15,231,255)"></path></svg>