<svg t="1652589846052" class="icon" viewBox="0 0 1024 1024" version="1.1" xmlns="http://www.w3.org/2000/svg" p-id="3410" width="200" height="200"><path d="M609.048 722.936c-27.612 0-50-22.388-50-50V359.08c0-27.616 22.388-50 50-50s50 22.384 50 50v313.856c0 27.616-22.388 50-50 50zM427.652 722.936c-27.616 0-50-22.388-50-50V359.08c0-27.616 22.384-50 50-50s50 22.384 50 50v313.856c0 27.616-22.384 50-50 50z" fill="#0ad9fb" p-id="3411" data-spm-anchor-id="a313x.7781069.0.i26" class="selected"></path><path d="M512.348 994c-265.776 0-482-216.224-482-482S246.572 30 512.348 30s482 216.224 482 482c0 27.612-22.388 50-50 50s-50-22.388-50-50c0-210.636-171.364-382-382-382s-382 171.364-382 382 171.364 382 382 382c27.612 0 50 22.388 50 50s-22.388 50-50 50z" fill="#0fe7ff" p-id="3412" data-spm-anchor-id="a313x.7781069.0.i24" class=""></path><path d="M690.736 955.588c-19.02 0-37.192-10.904-45.564-29.348-11.412-25.148-0.276-54.78 24.868-66.196 87.776-39.836 156.784-110.64 194.308-199.372 10.752-25.428 40.084-37.328 65.528-26.576 25.432 10.752 37.332 40.092 26.576 65.528-47.332 111.924-134.372 201.236-245.084 251.48a49.804 49.804 0 0 1-20.632 4.484z" fill="#0fe7ff" p-id="3413" data-spm-anchor-id="a313x.7781069.0.i25" class=""></path></svg>