<?xml version="1.0" standalone="no"?><!DOCTYPE svg PUBLIC "-//W3C//DTD SVG 1.1//EN" "http://www.w3.org/Graphics/SVG/1.1/DTD/svg11.dtd"><svg t="1639835257288" class="icon" viewBox="0 0 1024 1024" version="1.1" xmlns="http://www.w3.org/2000/svg" p-id="18263" xmlns:xlink="http://www.w3.org/1999/xlink" width="200" height="200"><defs><style type="text/css"></style></defs><path d="M1012.017667 953.893591l-141.618032-141.837369a492.044067 492.044067 0 0 0 116.759937-318.695407 491.751619 491.751619 0 0 0-144.615627-348.963794A491.751619 491.751619 0 0 0 493.507039 0.000731a491.751619 491.751619 0 0 0-348.963793 144.615626A491.751619 491.751619 0 0 0 0.000731 493.507039a491.751619 491.751619 0 0 0 144.615627 348.963794 491.751619 491.751619 0 0 0 349.036906 144.688738 492.044067 492.044067 0 0 0 318.768519-116.759937l141.471808 141.618033a41.235194 41.235194 0 0 0 58.124076 0 41.235194 41.235194 0 0 0 0-58.124076z m-518.510628-49.131295a411.255257 411.255257 0 1 1 0-822.510514 411.255257 411.255257 0 0 1 0 822.510514z m169.108162-452.417339H324.47199a41.235194 41.235194 0 0 0-41.162082 41.162082c0 22.664734 18.497348 41.162082 41.162082 41.162082h338.143211c22.591622 0 41.08897-18.57046 41.08897-41.162082a41.235194 41.235194 0 0 0-41.162082-41.162082z" p-id="18264" fill="rgb(15,231,255)"></path></svg>