<?xml version="1.0" standalone="no"?><!DOCTYPE svg PUBLIC "-//W3C//DTD SVG 1.1//EN" "http://www.w3.org/Graphics/SVG/1.1/DTD/svg11.dtd"><svg t="1639911747744" class="icon" viewBox="0 0 1024 1024" version="1.1" xmlns="http://www.w3.org/2000/svg" p-id="9371" xmlns:xlink="http://www.w3.org/1999/xlink" width="200" height="200"><defs><style type="text/css"></style></defs><path d="M512 64C265 64 64 265 64 512s201 448 448 448 448-201 448-448S759 64 512 64z m-29.7 643.2c0 29.1-23.6 52.8-52.8 52.8H311.1c-29.2 0-52.8-23.6-52.8-52.8V593.3c0-29.2 23.6-52.8 52.8-52.8h118.4c29.2 0 52.8 23.6 52.8 52.8v113.9z m0-276.5c0 29.1-23.6 52.8-52.8 52.8H311.1c-29.2 0-52.8-23.6-52.8-52.8V316.8c0-29.2 23.6-52.8 52.8-52.8h118.4c29.2 0 52.8 23.6 52.8 52.8v113.9z m283.4 276.5c0 29.1-23.6 52.8-52.8 52.8H594.5c-29.2 0-52.8-23.6-52.8-52.8V593.3c0-29.2 23.6-52.8 52.8-52.8h118.4c29.2 0 52.8 23.6 52.8 52.8v113.9z m0-276.5c0 29.1-23.6 52.8-52.8 52.8H594.5c-29.2 0-52.8-23.6-52.8-52.8V316.8c0-29.2 23.6-52.8 52.8-52.8h118.4c29.2 0 52.8 23.6 52.8 52.8v113.9z" p-id="9372" fill="rgba(0,0,0)"></path></svg>