<?xml version="1.0" standalone="no"?><!DOCTYPE svg PUBLIC "-//W3C//DTD SVG 1.1//EN" "http://www.w3.org/Graphics/SVG/1.1/DTD/svg11.dtd"><svg t="1658764269052" class="icon" viewBox="0 0 1024 1024" version="1.1" xmlns="http://www.w3.org/2000/svg" p-id="21294" xmlns:xlink="http://www.w3.org/1999/xlink" width="24" height="24"><defs><style type="text/css">@font-face { font-family: feedback-iconfont; src: url("//at.alicdn.com/t/font_1031158_u69w8yhxdu.woff2?t=1630033759944") format("woff2"), url("//at.alicdn.com/t/font_1031158_u69w8yhxdu.woff?t=1630033759944") format("woff"), url("//at.alicdn.com/t/font_1031158_u69w8yhxdu.ttf?t=1630033759944") format("truetype"); }
</style></defs><path d="M180.85 631.96c-17.42 0-31.54 14.12-31.54 31.54v220.77c0 17.42 14.12 31.54 31.54 31.54s31.54-14.12 31.54-31.54V663.5c0-17.42-14.13-31.54-31.54-31.54zM874.05 347.8c17.25-2.47 29.23-18.45 26.75-35.7l-25.33-176.86c-2.46-17.24-18.54-29.14-35.68-26.75l-176.86 25.34c-17.25 2.47-29.23 18.46-26.75 35.7 2.25 15.72 15.74 27.07 31.17 27.07 1.49 0 3-0.11 4.51-0.32l107.67-15.43L631.58 382.6 404.77 212.5c-11.9-8.93-28.47-8.32-39.7 1.49L112.76 434.76c-13.11 11.47-14.43 31.4-2.96 44.5 6.24 7.13 14.97 10.77 23.75 10.77 7.36 0 14.77-2.57 20.76-7.8L387.37 278.3l231.86 173.89c6.74 5.07 15.15 7.17 23.56 5.97a31.56 31.56 0 0 0 20.8-12.55l161.14-219.73 13.63 95.17c2.25 15.72 15.74 27.07 31.17 27.07 1.5 0 3.01-0.1 4.52-0.32zM653.92 568.88c-17.42 0-31.54 14.12-31.54 31.54v283.85c0 17.42 14.12 31.54 31.54 31.54s31.54-14.12 31.54-31.54V600.42c0-17.41-14.12-31.54-31.54-31.54z" fill="#ffffff" p-id="21295"></path><path d="M417.38 426.96c-17.42 0-31.54 14.12-31.54 31.54v425.77c0 17.42 14.12 31.54 31.54 31.54s31.54-14.12 31.54-31.54V458.5c0-17.42-14.12-31.54-31.54-31.54zM890.46 458.5c-17.42 0-31.54 14.12-31.54 31.54v394.23c0 17.42 14.12 31.54 31.54 31.54S922 901.69 922 884.27V490.04c0-17.42-14.12-31.54-31.54-31.54z" fill="#ffffff" p-id="21296"></path></svg>