<svg t="1655310060423" class="icon" viewBox="0 0 1025 1024" version="1.1" xmlns="http://www.w3.org/2000/svg" p-id="2991" data-spm-anchor-id="a313x.7781069.0.i0" width="200" height="200"><path d="M 950.997 812.536 l 0.904992 -1.3072 l -270.201 -468.825 V 125.818 h 18.9244 c 20.7243 0 37.3258 -14.6005 37.3258 -29.8948 S 721.245 62.007 700.622 62.007 H 325.061 c -20.7344 -0.402218 -37.3359 18.2205 -37.3359 33.9171 c 0 15.2944 16.7021 29.8948 37.3359 29.8948 h 18.9143 v 217.057 L 78.3 804.883 l 0.402218 0.904992 C 69.25 821.586 62 840.007 62 860.259 c 0.402218 56.2503 41.4586 101.741 92.279 101.741 H 880.514 c 45.883 -5.44 82.4548 -49.1108 82.4548 -101.741 c 0.100554 -17.6373 -4.83668 -33.3338 -11.9761 -47.7233 Z M 402.649 370.759 a 55.6167 55.6167 0 0 0 7.64214 -27.8838 V 125.818 h 204.991 v 216.654 a 55.466 55.466 0 0 0 7.6522 27.8738 l 49.1108 78.1008 s -77.1857 33.9069 -159.409 0 s -158.193 0 -158.193 0 Z m 462.913 527.912 H 163.56 c -19.3267 0 -35.5259 -20.7344 -35.5259 -45.4909 c 0 -7.64215 2.71498 -16.1993 8.5572 -25.6615 a 102.173 102.173 0 0 0 4.52496 -9.45206 l 173.96 -295.973 s 103.571 -35.898 153.164 -10.4576 c 91.2735 46.8986 234.876 0 234.876 0 L 885.985 822.501 a 68.3771 68.3771 0 0 0 3.11719 8.15497 c 4.02218 8.54713 6.34499 15.7972 6.34499 22.5343 c 0.301663 24.7565 -14.9927 41.8609 -29.8849 45.4909 Z" p-id="2992" data-spm-anchor-id="a313x.7781069.0.i1" class="selected" fill="#ffffff"></path><path d="M 348.078 639.039 a 95.0241 95.0241 0 1 0 95.0241 95.0241 a 95.1253 95.1253 0 0 0 -95.0241 -95.0241 Z m 0 125.693 a 30.6692 30.6692 0 1 1 30.6692 -30.6692 a 30.6993 30.6993 0 0 1 -30.6692 30.6692 Z" p-id="2993" data-spm-anchor-id="a313x.7781069.0.i4" class="selected" fill="#ffffff"></path><path d="M 572.817 614.906 m -38.2107 0 a 38.2107 38.2107 0 1 0 76.4215 0 a 38.2107 38.2107 0 1 0 -76.4215 0 Z" p-id="2994" data-spm-anchor-id="a313x.7781069.0.i3" class="selected" fill="#ffffff"></path><path d="M 679.908 676.243 a 82.9575 82.9575 0 1 0 82.9575 82.9575 a 83.0481 83.0481 0 0 0 -82.9575 -82.9575 Z m 0 101.56 a 18.6026 18.6026 0 1 1 18.6026 -18.6026 a 18.6227 18.6227 0 0 1 -18.6026 18.6026 Z" p-id="2995" data-spm-anchor-id="a313x.7781069.0.i2" class="selected" fill="#ffffff"></path></svg>