<svg t="1661129784844" class="icon" viewBox="0 0 1108 1024" version="1.1" xmlns="http://www.w3.org/2000/svg" p-id="1731" width="200" height="200"><path d="M937.954937 573.413308a62.381211 62.381211 0 0 1-62.13268-62.381211 64.369456 64.369456 0 0 1 1.242653-11.929474 62.629741 62.629741 0 0 1 3.479431-11.680944 54.925289 54.925289 0 0 1 5.716206-10.686821 47.469367 47.469367 0 0 1 8.450045-9.444168 64.617987 64.617987 0 0 1 87.979874 0 57.907658 57.907658 0 0 1 7.704453 9.444168 54.925289 54.925289 0 0 1 5.716206 10.686821 63.623864 63.623864 0 0 1 3.47943 11.680944 65.363579 65.363579 0 0 1 0 11.929474 62.381211 62.381211 0 0 1-62.13268 62.381211zM1031.153957 459.089177a62.13268 62.13268 0 0 1-44.73553-74.559216 62.381211 62.381211 0 0 1 74.559216-44.73553 62.13268 62.13268 0 0 1 44.486999 75.80187 61.635619 61.635619 0 0 1-59.895903 46.475244 56.665004 56.665004 0 0 1-14.414782-2.982368z m-84.003384-149.118432a61.884149 61.884149 0 0 1-12.426536-86.985752 62.381211 62.381211 0 0 1 86.985752-12.426536 61.884149 61.884149 0 0 1 12.426536 86.985752 61.635619 61.635619 0 0 1-49.706144 24.853072 61.138557 61.138557 0 0 1-37.279608-11.183883z m-122.774175-51.69439a61.884149 61.884149 0 0 1-47.220837-74.559216 62.13268 62.13268 0 0 1 74.559216-47.469367 61.884149 61.884149 0 0 1 47.220837 74.559215 61.884149 61.884149 0 0 1-60.641496 49.706144 61.635619 61.635619 0 0 1-13.91772-0.994122zM677.743273 248.583657a62.381211 62.381211 0 0 1-62.13268-62.13268 65.860641 65.860641 0 0 1 0-12.178005 62.629741 62.629741 0 0 1 5.716207-10.935352 54.179697 54.179697 0 0 1 5.716206-10.686821 55.919412 55.919412 0 0 1 7.704453-9.444167 66.854764 66.854764 0 0 1 9.444167-7.704453 61.138557 61.138557 0 0 1 22.367765-9.195636 57.907658 57.907658 0 0 1 24.853072 0 60.890026 60.890026 0 0 1 22.367764 9.195636 55.422351 55.422351 0 0 1 9.444168 7.704453 56.665004 56.665004 0 0 1 7.704452 9.444167 53.682635 53.682635 0 0 1 5.716207 10.686821 62.629741 62.629741 0 0 1 3.47943 11.680944 64.866518 64.866518 0 0 1 1.242653 12.178005 62.381211 62.381211 0 0 1-62.13268 62.13268zM4.225022 397.702089a62.13268 62.13268 0 0 1 42.498753-76.795993A62.13268 62.13268 0 0 1 124.26536 362.410727a61.884149 61.884149 0 0 1-42.498753 76.795992 59.398842 59.398842 0 0 1-17.14862 2.485307A62.381211 62.381211 0 0 1 4.225022 397.702089z m49.706144-127.496259a62.381211 62.381211 0 0 1-22.616295-84.997507 62.13268 62.13268 0 0 1 84.997506-22.367764 61.884149 61.884149 0 0 1 22.864826 83.754852 61.884149 61.884149 0 0 1-53.931166 31.06634 62.13268 62.13268 0 0 1-31.06634-8.450044z m99.412288-138.431611a62.13268 62.13268 0 0 1 28.829564-84.251914A62.13268 62.13268 0 0 1 265.67934 74.612153a61.884149 61.884149 0 0 1-27.835441 84.003383 61.138557 61.138557 0 0 1-27.58691 6.461799 61.884149 61.884149 0 0 1-55.670881-34.297239z m363.848974 16.154496a61.884149 61.884149 0 0 1-35.291362-80.523953 61.884149 61.884149 0 0 1 80.275422-35.291362 62.13268 62.13268 0 0 1 35.291363 80.523953 61.884149 61.884149 0 0 1-57.907658 39.516385 59.398842 59.398842 0 0 1-21.125111-5.219146z m-205.286375-83.506322A61.884149 61.884149 0 0 1 371.553426 0.052937a62.13268 62.13268 0 0 1 64.617987 59.398842A62.13268 62.13268 0 0 1 376.524041 124.318297H372.79608a61.884149 61.884149 0 0 1-60.890027-59.895904zM164.030275 576.395676a62.13268 62.13268 0 0 1-43.989937-106.122617 63.375334 63.375334 0 0 1 56.167942-17.14862 66.109171 66.109171 0 0 1 22.367765 9.444168 54.676758 54.676758 0 0 1 9.444168 7.704452 62.381211 62.381211 0 0 1-43.989938 106.122617zM492.836418 962.115354a62.381211 62.381211 0 0 1 62.132679-62.381211 62.13268 62.13268 0 0 1 62.13268 62.13268 61.884149 61.884149 0 0 1-61.884149 62.13268 62.13268 62.13268 0 0 1-62.38121-61.884149z m-115.318255 45.481121a61.884149 61.884149 0 0 1-49.706143-72.8195 62.13268 62.13268 0 0 1 72.8195-49.706144 62.13268 62.13268 0 0 1 49.706144 72.8195 62.381211 62.381211 0 0 1-60.890026 49.706144 64.120926 64.120926 0 0 1-11.929475 0z m282.082368-49.706144a62.13268 62.13268 0 0 1 49.706144-73.068031 62.13268 62.13268 0 0 1 73.068031 49.706144 62.13268 62.13268 0 0 1-49.706144 73.068031 71.576847 71.576847 0 0 1-12.178005 0 62.381211 62.381211 0 0 1-60.890026-49.706144z m-455.059749-5.467675A61.884149 61.884149 0 0 1 173.971504 869.910457a61.884149 61.884149 0 0 1 82.512199-29.575156 62.13268 62.13268 0 0 1 29.575156 82.76073 61.884149 61.884149 0 0 1-56.167943 35.539893 61.635619 61.635619 0 0 1-25.350134-6.213268z m618.095901-31.06634a61.884149 61.884149 0 0 1 28.829563-82.76073 62.13268 62.13268 0 0 1 83.009261 28.829563 62.13268 62.13268 0 0 1-28.829564 83.009261 61.635619 61.635619 0 0 1-27.089848 6.213268 61.884149 61.884149 0 0 1-55.919412-35.291362zM49.706144 836.358809a62.13268 62.13268 0 0 1 9.692698-87.234282 61.884149 61.884149 0 0 1 87.234283 9.692698 62.13268 62.13268 0 0 1-9.692698 87.482813 61.387088 61.387088 0 0 1-37.528139 13.420659 61.635619 61.635619 0 0 1-49.706144-23.361888z m922.048971 7.455922a62.381211 62.381211 0 0 1-11.183883-87.234283 62.381211 62.381211 0 0 1 87.482814-10.935351 62.381211 62.381211 0 0 1 11.183882 87.234282 62.878272 62.878272 0 0 1-49.706144 24.853072 62.381211 62.381211 0 0 1-37.528139-12.675066zM44.98406 701.655159A62.13268 62.13268 0 0 1 2.485307 624.859167a62.13268 62.13268 0 0 1 76.795993-42.498753 62.13268 62.13268 0 0 1 42.498753 76.795992 61.884149 61.884149 0 0 1-59.647373 44.98406 58.901781 58.901781 0 0 1-17.14862-2.485307z m938.451999-44.98406a62.13268 62.13268 0 0 1 40.759038-77.790115 62.13268 62.13268 0 0 1 77.790115 40.759038 62.13268 62.13268 0 0 1-40.759038 77.790115 60.890026 60.890026 0 0 1-18.639804 2.982369 62.13268 62.13268 0 0 1-59.150311-43.741407zM456.550932 534.891046a159.805253 159.805253 0 0 1-71.576847-16.900089l-78.038646-39.019323a49.706144 49.706144 0 0 1 44.486999-88.973997l78.038646 39.019323a60.392965 60.392965 0 0 0 69.837132-11.432414l36.782547-36.782546a159.805253 159.805253 0 0 1 184.658325-29.823686l78.038646 39.019323a49.706144 49.706144 0 1 1-44.486999 88.973997l-78.038646-39.019323a60.641496 60.641496 0 0 0-69.837132 11.432413l-36.782547 36.782547a159.805253 159.805253 0 0 1-113.081478 46.723775zM456.550932 733.715622a159.805253 159.805253 0 0 1-71.576847-16.900089l-78.038646-39.019323a49.706144 49.706144 0 0 1 44.486999-88.973998l78.038646 39.019323a60.392965 60.392965 0 0 0 69.837132-11.432413l36.782547-36.782546a159.805253 159.805253 0 0 1 184.658325-29.823687l78.038646 39.019323a49.706144 49.706144 0 0 1-44.486999 88.973998l-78.038646-39.019323a60.641496 60.641496 0 0 0-69.837132 11.432413l-36.782547 36.782547a159.805253 159.805253 0 0 1-113.081478 46.723775z" p-id="1732" fill="#0fe7ff"></path></svg>