<?xml version="1.0" standalone="no"?><!DOCTYPE svg PUBLIC "-//W3C//DTD SVG 1.1//EN" "http://www.w3.org/Graphics/SVG/1.1/DTD/svg11.dtd"><svg t="1658588714905" class="icon" viewBox="0 0 1024 1024" version="1.1" xmlns="http://www.w3.org/2000/svg" p-id="9537" xmlns:xlink="http://www.w3.org/1999/xlink" width="32" height="32"><defs><style type="text/css">@font-face { font-family: feedback-iconfont; src: url("//at.alicdn.com/t/font_1031158_u69w8yhxdu.woff2?t=1630033759944") format("woff2"), url("//at.alicdn.com/t/font_1031158_u69w8yhxdu.woff?t=1630033759944") format("woff"), url("//at.alicdn.com/t/font_1031158_u69w8yhxdu.ttf?t=1630033759944") format("truetype"); }
</style></defs><path d="M292.2 960.1c-12.9 0-25.7-5.2-35.9-14.5s-16.4-21.5-17.6-34.5l-48-528c-1.1-12.5 2.7-24.4 10.8-33.3 8.1-8.9 19.5-13.8 32.2-13.8h556.8c12.6 0 24.1 4.9 32.2 13.8 8.1 8.9 11.9 20.6 10.8 33.3l-48 528c-1.2 12.9-7.4 25.2-17.6 34.5-10.2 9.3-23 14.5-35.9 14.5H292.2z m326.6-96.2h108.1l30.8-431.2H618.8v431.2z m-175.9 0H581V432.6H442.9v431.3z m-145.8 0h108.1V432.6H266.3l30.8 431.3zM170.7 277.4v-18.8c0-42.7 34.8-77.5 77.5-77.5h85.1l11.5-72.6c2.6-18.7 30.9-44.7 49.8-44.7h234.5c18.9 0 47.1 25.9 49.7 44.6l11.5 72.6h85.2c20.7 0 40.1 8.1 54.8 22.6 14.7 14.7 22.6 34.1 22.6 54.8v18.9H170.7z m210.9-96.3h260.9l-11.1-69.5H392.7l-11.1 69.5z" fill="#0fe7ff" p-id="9538"></path></svg>