<?xml version="1.0" standalone="no"?><!DOCTYPE svg PUBLIC "-//W3C//DTD SVG 1.1//EN" "http://www.w3.org/Graphics/SVG/1.1/DTD/svg11.dtd"><svg t="1658588547739" class="icon" viewBox="0 0 1024 1024" version="1.1" xmlns="http://www.w3.org/2000/svg" p-id="1558" width="32" height="32" xmlns:xlink="http://www.w3.org/1999/xlink"><defs><style type="text/css">@font-face { font-family: feedback-iconfont; src: url("//at.alicdn.com/t/font_1031158_u69w8yhxdu.woff2?t=1630033759944") format("woff2"), url("//at.alicdn.com/t/font_1031158_u69w8yhxdu.woff?t=1630033759944") format("woff"), url("//at.alicdn.com/t/font_1031158_u69w8yhxdu.ttf?t=1630033759944") format("truetype"); }
</style></defs><path d="M512 4.096C231.424 4.096 4.096 231.424 4.096 512s227.328 508.416 508.416 508.416 508.416-227.328 508.416-508.416S792.576 4.096 512 4.096z m0 941.568c-239.616 0-433.664-194.048-433.664-433.664S272.384 78.336 512 78.336s433.664 194.048 433.664 433.664-194.048 433.664-433.664 433.664z" fill="#0fe7ff" p-id="1559"></path><path d="M657.92 349.696c0 80.384-145.408 188.928-145.408 188.928S367.104 430.08 367.104 349.696s65.024-145.408 145.408-145.408 145.408 65.024 145.408 145.408zM652.288 668.16c-4.096 0-8.192-1.536-11.776-4.608l-58.368-51.2-58.368 51.2c-6.656 6.144-16.896 6.144-23.552 0l-58.368-51.2-58.368 51.2c-6.656 6.144-16.896 6.144-23.552 0l-70.144-61.44c-7.68-6.656-8.192-17.92-1.536-25.088s17.92-8.192 25.088-1.536l58.368 51.2 58.368-51.2c6.656-6.144 16.896-6.144 23.552 0l58.368 51.2 58.368-51.2c6.656-6.144 16.896-6.144 23.552 0l58.368 51.2 58.368-51.2c7.68-6.656 18.944-5.632 25.088 1.536 6.656 7.68 5.632 18.944-1.536 25.088l-70.144 61.44c-3.072 3.072-7.168 4.608-11.776 4.608zM685.568 811.52c-3.584 0-7.168-1.024-10.24-3.072L599.04 754.176l-76.288 54.272c-6.144 4.608-14.336 4.608-20.48 0l-76.288-54.272-76.288 54.272c-6.144 4.608-14.336 4.608-20.992 0l-86.528-61.44c-8.192-5.632-9.728-16.896-4.096-25.088 5.632-8.192 16.896-9.728 25.088-4.096l76.288 54.272 76.288-54.272c6.144-4.608 14.336-4.608 20.992 0l76.288 54.272 76.288-54.272c6.144-4.608 14.336-4.608 20.48 0l76.288 54.272 76.288-54.272c8.192-5.632 19.456-3.584 25.088 4.096 5.632 8.192 3.584 19.456-4.096 25.088l-86.528 61.44c-4.096 2.048-7.68 3.072-11.264 3.072z" fill="#0fe7ff" p-id="1560"></path></svg>