<?xml version="1.0" standalone="no"?><!DOCTYPE svg PUBLIC "-//W3C//DTD SVG 1.1//EN" "http://www.w3.org/Graphics/SVG/1.1/DTD/svg11.dtd"><svg t="1656514951002" class="icon" viewBox="0 0 1024 1024" version="1.1" xmlns="http://www.w3.org/2000/svg" p-id="1361" width="30" height="30" xmlns:xlink="http://www.w3.org/1999/xlink"><defs><style type="text/css">@font-face { font-family: feedback-iconfont; src: url("//at.alicdn.com/t/font_1031158_u69w8yhxdu.woff2?t=1630033759944") format("woff2"), url("//at.alicdn.com/t/font_1031158_u69w8yhxdu.woff?t=1630033759944") format("woff"), url("//at.alicdn.com/t/font_1031158_u69w8yhxdu.ttf?t=1630033759944") format("truetype"); }
</style></defs><path d="M443.733333 1024h-3.413333c-6.826667-3.413333-13.653333-10.24-13.653333-17.066667v-648.533333c0-6.826667 3.413333-13.653333 10.24-13.653333 6.826667-3.413333 13.653333-3.413333 17.066666 3.413333l477.866667 375.466667c6.826667 3.413333 6.826667 13.653333 6.826667 20.48-3.413333 3.413333-10.24 6.826667-17.066667 6.826666h-296.96l-167.253333 266.24c-3.413333 3.413333-6.826667 6.826667-13.653334 6.826667z m17.066667-631.466667v552.96l139.946667-221.866666c3.413333-3.413333 10.24-6.826667 13.653333-6.826667h259.413333l-413.013333-324.266667z" fill="#0fe7ff" p-id="1362"></path><path d="M307.2 689.493333h-6.826667c-129.706667-58.026667-215.04-184.32-215.04-327.68C85.333333 160.426667 245.76 0 443.733333 0s358.4 160.426667 358.4 358.4c0 30.72-3.413333 58.026667-10.24 88.746667-3.413333 10.24-10.24 13.653333-20.48 13.653333-10.24-3.413333-13.653333-10.24-13.653333-20.48 6.826667-27.306667 10.24-54.613333 10.24-81.92C768 180.906667 621.226667 34.133333 443.733333 34.133333s-324.266667 146.773333-324.266666 324.266667c0 129.706667 75.093333 245.76 194.56 296.96 10.24 3.413333 13.653333 13.653333 10.24 23.893333-3.413333 6.826667-10.24 10.24-17.066667 10.24z" fill="#0fe7ff" p-id="1363"></path><path d="M361.813333 563.2h-6.826666c-81.92-34.133333-133.12-116.053333-133.12-204.8C221.866667 235.52 320.853333 136.533333 443.733333 136.533333s221.866667 98.986667 221.866667 221.866667c0 17.066667-3.413333 37.546667-6.826667 54.613333-3.413333 10.24-10.24 13.653333-20.48 13.653334-10.24-3.413333-13.653333-10.24-13.653333-20.48 3.413333-17.066667 6.826667-30.72 6.826667-47.786667C631.466667 256 546.133333 170.666667 443.733333 170.666667s-187.733333 85.333333-187.733333 187.733333c0 75.093333 44.373333 143.36 112.64 170.666667 10.24 3.413333 13.653333 13.653333 10.24 23.893333-3.413333 6.826667-10.24 10.24-17.066667 10.24z" fill="#0fe7ff" p-id="1364"></path></svg>