<?xml version="1.0" standalone="no"?><!DOCTYPE svg PUBLIC "-//W3C//DTD SVG 1.1//EN" "http://www.w3.org/Graphics/SVG/1.1/DTD/svg11.dtd"><svg t="1659973394085" class="icon" viewBox="0 0 1024 1024" version="1.1" xmlns="http://www.w3.org/2000/svg" p-id="4877" xmlns:xlink="http://www.w3.org/1999/xlink" width="32" height="32"><defs><style type="text/css">@font-face { font-family: feedback-iconfont; src: url("//at.alicdn.com/t/font_1031158_u69w8yhxdu.woff2?t=1630033759944") format("woff2"), url("//at.alicdn.com/t/font_1031158_u69w8yhxdu.woff?t=1630033759944") format("woff"), url("//at.alicdn.com/t/font_1031158_u69w8yhxdu.ttf?t=1630033759944") format("truetype"); }
</style></defs><path d="M512 0a512 512 0 1 0 512 512A512 512 0 0 0 512 0z m330.666667 729.173333a38.4 38.4 0 0 1-76.8 0v-56.32a213.333333 213.333333 0 0 0-213.333334-213.333333H310.613333l107.946667 107.946667a38.4 38.4 0 0 1-54.613333 54.613333l-170.666667-170.666667a38.4 38.4 0 0 1 0-54.613333l176.213333-178.346667a38.4 38.4 0 0 1 54.186667 54.186667L314.88 381.866667h236.8a290.986667 290.986667 0 0 1 290.986667 290.986666z" fill="#0fe7ff" p-id="4878"></path></svg>