<?xml version="1.0" standalone="no"?><!DOCTYPE svg PUBLIC "-//W3C//DTD SVG 1.1//EN" "http://www.w3.org/Graphics/SVG/1.1/DTD/svg11.dtd"><svg t="1650286758559" class="icon" viewBox="0 0 1024 1024" version="1.1" xmlns="http://www.w3.org/2000/svg" p-id="12681" width="34" height="34" xmlns:xlink="http://www.w3.org/1999/xlink"><defs><style type="text/css">@font-face { font-family: feedback-iconfont; src: url("//at.alicdn.com/t/font_1031158_u69w8yhxdu.woff2?t=1630033759944") format("woff2"), url("//at.alicdn.com/t/font_1031158_u69w8yhxdu.woff?t=1630033759944") format("woff"), url("//at.alicdn.com/t/font_1031158_u69w8yhxdu.ttf?t=1630033759944") format("truetype"); }
</style></defs><path d="M575.68 736A160.32 160.32 0 1 0 736 575.68H599.893c-13.461 0-24.192 10.752-24.192 24.192V736zM736 533.333A202.667 202.667 0 1 1 533.333 736V599.893a66.432 66.432 0 0 1 66.539-66.56H736zM490.667 736A202.667 202.667 0 1 1 288 533.333h136.128a66.432 66.432 0 0 1 66.539 66.539V736zM288 575.68A160.32 160.32 0 1 0 448.32 736V599.893c0-13.44-10.73-24.192-24.192-24.192H288z m245.333-287.701A202.667 202.667 0 1 1 736 490.667H599.893a66.432 66.432 0 0 1-66.56-66.539V288zM736 448.32A160.32 160.32 0 1 0 575.68 288v136.128c0 13.44 10.73 24.192 24.192 24.192H736zM448.32 288A160.32 160.32 0 1 0 288 448.32h136.128c13.461 0 24.192-10.752 24.192-24.192V288zM288 490.667A202.667 202.667 0 1 1 490.667 288v136.128a66.432 66.432 0 0 1-66.539 66.539H288z" fill="#ffffff" p-id="12682"></path></svg>