<?xml version="1.0" standalone="no"?><!DOCTYPE svg PUBLIC "-//W3C//DTD SVG 1.1//EN" "http://www.w3.org/Graphics/SVG/1.1/DTD/svg11.dtd"><svg t="1653032458544" class="icon" viewBox="0 0 1024 1024" version="1.1" xmlns="http://www.w3.org/2000/svg" p-id="683" width="36" height="36" xmlns:xlink="http://www.w3.org/1999/xlink"><defs><style type="text/css">@font-face { font-family: feedback-iconfont; src: url("//at.alicdn.com/t/font_1031158_u69w8yhxdu.woff2?t=1630033759944") format("woff2"), url("//at.alicdn.com/t/font_1031158_u69w8yhxdu.woff?t=1630033759944") format("woff"), url("//at.alicdn.com/t/font_1031158_u69w8yhxdu.ttf?t=1630033759944") format("truetype"); }
</style></defs><path d="M721.948466 186.720402H308.799594L102.210708 544.512065l206.588886 357.791663h413.148872l206.574436-357.791663-206.574436-357.791663z m-36.666384 652.069201H345.480428L175.579601 544.512065l169.900827-294.277538H685.282082l169.900827 294.277538-169.900827 294.277538z" fill="#ffffff" p-id="684"></path><path d="M549.439449 645.718511c-40.878503-5.743798-68.022465-48.955945-66.85203-101.25702 0.021675-0.671916 0.050574-1.329382 0.086698-1.957949 0.065024-1.726752 0.209522-3.467954 0.346796-5.21638 0.563542-6.870883 1.387181-11.104676 1.387181-11.104677 6.784184-28.74789 16.364406-50.299777 26.529845-66.432986 20.713798-27.909802 50.133604-44.021336 79.459487-39.917591 46.904072 6.581887 75.745887 62.480964 64.460588 124.86078a156.708153 156.708153 0 0 1-5.404228 21.031693c1.683402 1.257133 3.446279 2.59374 5.238055 4.045946a163.066068 163.066068 0 0 0 6.386814-24.420173c11.191375-61.69345-14.54373-117.426354-58.369994-131.702763a332.005983 332.005983 0 0 0-20.627099-3.453504c-1.546129-0.007225-3.106708-0.0289-4.667287 0.043349l1.907374-0.433494c-61.259955-8.388113-174.206869-15.230096-182.717805-16.003161-7.261028-0.671916-16.378856 2.470917-22.04318 4.811786-51.419637 57.596929-52.655096 97.268874-52.655096 97.268874-9.638021 103.279993 59.200858 137.721107 59.200858 137.721107l150.819857 16.617278c4.667288 1.733977 9.493523 3.099484 14.594305 3.821974 4.277143 0.599667 8.547061 0.664691 12.795304 0.512968l-7.932944-8.691559c-0.664691-0.079474-1.307708-0.065024-1.943499-0.144498z" fill="#ffffff" p-id="685"></path><path d="M631.752773 554.764203c2.181921 0.895888 5.64265 2.781588 9.941467 5.548726 1.589479-5.295854 2.99111-10.721757 4.017046-16.357182 10.555584-58.27607-14.991674-110.324274-57.105636-116.22702-42.099512-5.895521-84.791466 36.558011-95.368724 94.848531a147.200181 147.200181 0 0 0-2.297519 22.80902l0.361245-0.946462c-0.01445-0.007225 128.755002 5.498151 140.452121 10.324387z" fill="#ffffff" p-id="686"></path></svg>