<?xml version="1.0" standalone="no"?><!DOCTYPE svg PUBLIC "-//W3C//DTD SVG 1.1//EN" "http://www.w3.org/Graphics/SVG/1.1/DTD/svg11.dtd"><svg t="1660481684712" class="icon" viewBox="0 0 1024 1024" version="1.1" xmlns="http://www.w3.org/2000/svg" p-id="16941" xmlns:xlink="http://www.w3.org/1999/xlink" width="24" height="24"><defs><style type="text/css">@font-face { font-family: feedback-iconfont; src: url("//at.alicdn.com/t/font_1031158_u69w8yhxdu.woff2?t=1630033759944") format("woff2"), url("//at.alicdn.com/t/font_1031158_u69w8yhxdu.woff?t=1630033759944") format("woff"), url("//at.alicdn.com/t/font_1031158_u69w8yhxdu.ttf?t=1630033759944") format("truetype"); }
</style></defs><path d="M512 422.4m-173.312 0a173.312 173.312 0 1 0 346.624 0 173.312 173.312 0 1 0-346.624 0Z" fill="#ffffff" p-id="16942"></path><path d="M809.6 124.8c-164.352-164.352-430.848-164.352-595.2 0C77.12 262.08 54.528 470.72 146.624 631.488c18.112 31.68 40.704 61.44 67.776 88.512L512 1017.6l297.6-297.6c27.072-27.072 49.664-56.832 67.776-88.512 92.096-160.768 69.504-369.408-67.776-506.688z m-100.032 495.168c-109.12 109.12-286.016 109.12-395.136 0a278.304 278.304 0 0 1-62.08-94.208c-40-100.48-19.264-219.584 62.08-300.928 109.12-109.12 286.016-109.12 395.136 0 81.344 81.344 102.08 200.448 62.08 300.928a278.304 278.304 0 0 1-62.08 94.208z" fill="#ffffff" p-id="16943"></path><path d="M512 422.4m-173.312 0a173.312 173.312 0 1 0 346.624 0 173.312 173.312 0 1 0-346.624 0Z" fill="#ffffff" p-id="16944"></path><path d="M512 422.4m-173.312 0a173.312 173.312 0 1 0 346.624 0 173.312 173.312 0 1 0-346.624 0Z" fill="#ffffff" p-id="16945"></path></svg>