<svg t="1654268301357" class="icon" viewBox="0 0 1024 1024" version="1.1" xmlns="http://www.w3.org/2000/svg" p-id="2821" width="200" height="200"><path d="M843.861333 843.861333l-60.330666-60.330666c114.986667-114.986667 90.88-331.477333-60.330667-482.730667-78.208-78.208-176.768-124.8-272.213333-131.626667l6.101333-85.12c116.352 8.32 233.984 64 326.442667 156.416 181.973333 181.973333 211.968 451.754667 60.330666 603.392zM359.424 88.746667l14.72 84.053333c-52.394667 9.216-98.133333 32.170667-133.674667 67.712-114.986667 114.986667-90.88 331.477333 60.330667 482.730667 35.456 35.413333 75.221333 64.597333 117.504 86.485333l-39.253333 75.776a562.901333 562.901333 0 0 1-138.581334-101.930667C58.496 601.557333 28.501333 331.776 180.138667 180.138667 228.394667 131.84 290.133333 100.864 359.424 88.704z m107.52 832.597333l24.618667-81.706667c113.365333 34.133333 222.378667 13.525333 291.968-56.064l60.330666 60.330667c-93.312 93.354667-235.136 120.192-376.917333 77.44z m-15.274667-529.962667L512 451.669333l45.226667-45.226666a21.333333 21.333333 0 0 1 30.208 0l30.165333 30.122666a21.333333 21.333333 0 0 1 0 30.165334L572.373333 512l60.288 60.330667 75.434667-75.434667a21.333333 21.333333 0 0 1 30.165333 0l30.165334 30.208a21.333333 21.333333 0 0 1 0 30.165333l-150.826667 150.826667a21.333333 21.333333 0 0 1-30.165333 0l-30.165334-30.165333a21.333333 21.333333 0 0 1 0-30.165334l15.061334-15.104L512 572.330667l-15.104 15.104a21.333333 21.333333 0 0 1-30.165333 0l-30.165334-30.165334a21.333333 21.333333 0 0 1 0-30.165333l15.104-15.104-60.330666-60.330667-75.434667 75.434667a21.333333 21.333333 0 0 1-30.165333 0l-30.165334-30.208a21.333333 21.333333 0 0 1 0-30.165333l150.826667-150.826667a21.333333 21.333333 0 0 1 30.165333 0l30.165334 30.165333a21.333333 21.333333 0 0 1 0 30.165334l-15.061334 15.104zM361.130667 300.8A42.666667 42.666667 0 1 1 300.8 240.469333 42.666667 42.666667 0 0 1 361.130667 300.8z m60.373333 422.4a42.666667 42.666667 0 1 1-60.373333-60.330667A42.666667 42.666667 0 0 1 421.546667 723.2z m211.2-392.234667a42.666667 42.666667 0 1 1-60.373333-60.330666 42.666667 42.666667 0 0 1 60.330666 60.330666z m90.453333 452.565334a42.666667 42.666667 0 1 0-60.288-60.330667 42.666667 42.666667 0 0 0 60.330667 60.330667z" p-id="2822" fill="#ffffff"></path></svg>