<?xml version="1.0" standalone="no"?><!DOCTYPE svg PUBLIC "-//W3C//DTD SVG 1.1//EN" "http://www.w3.org/Graphics/SVG/1.1/DTD/svg11.dtd"><svg t="1645155337797" class="icon" viewBox="0 0 1024 1024" version="1.1" xmlns="http://www.w3.org/2000/svg" p-id="3075" xmlns:xlink="http://www.w3.org/1999/xlink" width="20" height="20"><defs><style type="text/css"></style></defs><path d="M511.974273 512.025215m-486.3741 0a486.374101 486.374101 0 1 0 972.748201 0 486.374101 486.374101 0 1 0-972.748201 0Z" fill="#FFFFFF" p-id="3076"></path><path d="M149.958351 874.041137A511.972737 511.972737 0 1 1 511.974273 1023.997952a508.644915 508.644915 0 0 1-362.015922-149.956815zM51.19881 512.025215a460.775464 460.775464 0 1 0 460.775463-460.775464 461.313035 461.313035 0 0 0-460.775463 460.775464z m201.845251 241.164758c102.215357-28.670473 169.514173-62.947048 201.922048-104.058459a176.630594 176.630594 0 0 0 16.203937-27.41614h-188.201178v-53.603546h205.659449a295.638657 295.638657 0 0 0 4.966135-53.603546h59.824015a367.826813 367.826813 0 0 1-3.737401 53.603546h219.994685c-1.254333 107.207091-10.597836 170.768507-29.284841 191.989777s-50.480512 31.793507-96.609255 31.793507c-22.424406 0-49.866145-1.254333-81.634053-2.559864l-14.949604-52.349213 84.142719 3.097436c33.636609-0.614367 54.83228-6.834836 63.561416-19.301373a250.687451 250.687451 0 0 0 14.949603-99.092323h-173.865941a255.986369 255.986369 0 0 1-21.810039 45.488778c-31.17914 53.603546-105.338391 98.477956-222.503351 133.368898z m-9.343502-260.491729c187.586811-28.670473 328.430511-76.027952 422.5311-140.792503l46.077547 34.916541c-99.834684 74.236047-248.025193 127.762797-443.726772 160.170671z m29.284841-133.368898a551.804216 551.804216 0 0 0 138.974999-105.338391l43.00571 36.759643a573.409466 573.409466 0 0 1-147.089767 114.681893z m336.545279-81.019686l38.628343-36.759643a1082.82234 1082.82234 0 0 1 157.687603 121.542328l-41.111411 40.497044a944.896884 944.896884 0 0 0-155.204535-125.279729z m-110.304527 115.193866v-170.154139h59.824015v170.154139z" fill="#A02500" p-id="3077"></path></svg>