<?xml version="1.0" standalone="no"?><!DOCTYPE svg PUBLIC "-//W3C//DTD SVG 1.1//EN" "http://www.w3.org/Graphics/SVG/1.1/DTD/svg11.dtd"><svg t="1645701778077" class="icon" viewBox="0 0 1024 1024" version="1.1" xmlns="http://www.w3.org/2000/svg" p-id="1540" xmlns:xlink="http://www.w3.org/1999/xlink" width="28" height="28"><defs><style type="text/css"></style></defs><path d="M511.974273 512.025215m-486.3741 0a486.374101 486.374101 0 1 0 972.748201 0 486.374101 486.374101 0 1 0-972.748201 0Z" fill="#FFFFFF" p-id="1541"></path><path d="M149.958351 874.041137A511.972737 511.972737 0 1 1 511.974273 1023.997952a508.644915 508.644915 0 0 1-362.015922-149.956815zM51.19881 512.025215a460.775464 460.775464 0 1 0 460.775463-460.775464 461.313035 461.313035 0 0 0-460.775463 460.775464z m268.785687 268.785687v-51.197274h76.795911v-435.176827h-76.795911v-51.197274h383.979553v51.197274h-76.795911v435.176827h76.795911v51.197274z m255.986369-51.197274v-435.176827h-127.993185v435.176827z" fill="#04e018" p-id="1542" data-spm-anchor-id="a313x.7781069.0.i6" class="selected"></path></svg>